<svg width="75.000000" height="75.000000" viewBox="0 0 75 75" fill="none" xmlns="http://www.w3.org/2000/svg" xmlns:xlink="http://www.w3.org/1999/xlink">
	<desc>
			Created with Pixso.
	</desc>
	<defs>
		<clipPath id="clip109_4869">
			<rect id="fluent:globe-20-regular" width="75.000000" height="75.000000" fill="white" fill-opacity="0"/>
		</clipPath>
	</defs>
	<rect id="fluent:globe-20-regular" width="75.000000" height="75.000000" fill="#FFFFFF" fill-opacity="0"/>
	<g clip-path="url(#clip109_4869)">
		<path id="Vector" d="M37.5 67.5C45.4565 67.5 53.0871 64.3393 58.7132 58.7132C64.3393 53.0871 67.5 45.4565 67.5 37.5C67.5 29.5435 64.3393 21.9129 58.7132 16.2868C53.0871 10.6607 45.4565 7.5 37.5 7.5C29.5435 7.5 21.9129 10.6607 16.2868 16.2868C10.6607 21.9129 7.5 29.5435 7.5 37.5C7.5 45.4565 10.6607 53.0871 16.2868 58.7132C21.9129 64.3393 29.5435 67.5 37.5 67.5ZM37.5 11.25C39.9637 11.25 42.7762 13.4625 45.0825 18.405C45.8962 20.1525 46.605 22.1625 47.1788 24.375L27.8212 24.375C28.395 22.1625 29.1038 20.1525 29.9213 18.405C32.22 13.4625 35.0325 11.25 37.5 11.25ZM26.52 16.8188C25.4127 19.2443 24.5545 21.776 23.9587 24.375L14.76 24.375C17.9259 18.9033 22.9546 14.7531 28.9275 12.6825C28.0237 13.92 27.2175 15.3225 26.52 16.8188ZM23.22 28.125C22.7347 31.2263 22.494 34.361 22.5 37.5C22.5 40.7625 22.7512 43.92 23.2238 46.875L12.975 46.875C11.8314 43.8818 11.2466 40.7042 11.25 37.5C11.25 34.2 11.8613 31.035 12.975 28.125L23.2238 28.125L23.22 28.125ZM23.9587 50.625C24.6188 53.4113 25.485 55.9575 26.52 58.1812C27.2175 59.6775 28.0237 61.08 28.9275 62.3175C22.9546 60.2469 17.9259 56.0967 14.76 50.625L23.9625 50.625L23.9587 50.625ZM27.8212 50.625L47.1788 50.625C46.6622 52.6748 45.9592 54.6732 45.0787 56.595C42.78 61.5375 39.9675 63.75 37.5 63.75C35.0363 63.75 32.2238 61.5375 29.9175 56.595C29.0397 54.6729 28.3393 52.6746 27.825 50.625L27.8212 50.625ZM47.9775 46.875L27.0225 46.875C26.5014 43.7773 26.243 40.6412 26.25 37.5C26.25 34.1888 26.5237 31.0312 27.0225 28.125L47.9775 28.125C48.4763 31.0312 48.75 34.1888 48.75 37.5C48.75 40.8112 48.4763 43.9688 47.9775 46.875ZM51.0413 50.625L60.24 50.625C57.0741 56.0967 52.0454 60.2469 46.0725 62.3175C46.9763 61.08 47.7825 59.6775 48.48 58.1812C49.515 55.9575 50.3812 53.4113 51.0413 50.625ZM62.0287 46.875L51.7762 46.875C52.2488 43.92 52.5 40.7625 52.5 37.5C52.5 34.2375 52.2488 31.08 51.7762 28.125L62.025 28.125C63.1387 31.035 63.75 34.2 63.75 37.5C63.75 40.8 63.1387 43.965 62.025 46.875L62.0287 46.875ZM46.0725 12.6825C52.0456 14.7528 57.0743 18.903 60.24 24.375L51.0375 24.375C50.4417 21.7761 49.5836 19.2443 48.4763 16.8188C47.8085 15.3658 47.0023 13.9807 46.0687 12.6825L46.0725 12.6825Z" fill="#FFFFFF" fill-opacity="1.000000" fill-rule="nonzero"/>
	</g>
</svg>
