<svg aria-hidden="true" style="position: absolute; width: 0; height: 0; overflow: hidden;" version="1.1" xmlns="http://www.w3.org/2000/svg" xmlns:xlink="http://www.w3.org/1999/xlink">
<defs>
<symbol id="lang" viewBox="0 0 32 32">
<path d="M16 28.8c3.395 0 6.651-1.349 9.051-3.749s3.749-5.656 3.749-9.051c0-3.395-1.349-6.651-3.749-9.051s-5.656-3.749-9.051-3.749c-3.395 0-6.651 1.349-9.051 3.749s-3.749 5.656-3.749 9.051c0 3.395 1.349 6.651 3.749 9.051s5.656 3.749 9.051 3.749zM16 4.8c1.051 0 2.251 0.944 3.235 3.053 0.347 0.746 0.65 1.603 0.894 2.547h-8.259c0.245-0.944 0.547-1.802 0.896-2.547 0.981-2.109 2.181-3.053 3.234-3.053zM11.315 7.176c-0.472 1.035-0.839 2.115-1.093 3.224h-3.925c1.351-2.335 3.496-4.105 6.045-4.989-0.386 0.528-0.73 1.126-1.027 1.765zM9.907 12c-0.207 1.323-0.31 2.661-0.307 4 0 1.392 0.107 2.739 0.309 4h-4.373c-0.488-1.277-0.737-2.633-0.736-4 0-1.408 0.261-2.758 0.736-4h4.371zM10.222 21.6c0.282 1.189 0.651 2.275 1.093 3.224 0.298 0.638 0.642 1.237 1.027 1.765-2.548-0.883-4.694-2.654-6.045-4.989h3.925zM11.87 21.6h8.259c-0.22 0.875-0.52 1.727-0.896 2.547-0.981 2.109-2.181 3.053-3.234 3.053-1.051 0-2.251-0.944-3.235-3.053-0.375-0.82-0.673-1.673-0.893-2.547h-0.002zM20.47 20h-8.941c-0.222-1.322-0.333-2.66-0.33-4 0-1.413 0.117-2.76 0.33-4h8.941c0.213 1.24 0.33 2.587 0.33 4s-0.117 2.76-0.33 4zM21.778 21.6h3.925c-1.351 2.335-3.496 4.105-6.045 4.989 0.386-0.528 0.73-1.126 1.027-1.765 0.442-0.949 0.811-2.035 1.093-3.224zM26.466 20h-4.374c0.202-1.261 0.309-2.608 0.309-4s-0.107-2.739-0.309-4h4.373c0.475 1.242 0.736 2.592 0.736 4s-0.261 2.758-0.736 4h0.002zM19.658 5.411c2.549 0.883 4.694 2.654 6.045 4.989h-3.926c-0.254-1.109-0.62-2.189-1.093-3.224-0.285-0.62-0.629-1.211-1.027-1.765h0.002z"></path>
</symbol>

<symbol id="button-swiper-nav" viewBox="0 0 19 32">
<path d="M0.36 31.39c-0.48-0.481-0.48-1.26 0-1.74l13.649-13.649-13.649-13.649c-0.48-0.48-0.48-1.26 0-1.74s1.26-0.48 1.74 0l14.52 14.52c0.48 0.481 0.48 1.26 0 1.74l-14.52 14.52c-0.481 0.48-1.26 0.48-1.74 0z"></path>
</symbol>
<symbol id="icon-arrow" viewBox="0 0 51 32">
<path d="M49.925 16.818c0.809-0.824 0.798-2.145-0.023-2.951l-13.386-13.138c-0.821-0.806-2.143-0.792-2.951 0.032s-0.798 2.145 0.023 2.951l11.899 11.678-11.711 11.932c-0.809 0.824-0.798 2.145 0.023 2.951s2.143 0.792 2.951-0.032l13.175-13.424zM1.183 17.954l47.272-0.509-0.033-4.174-47.272 0.509 0.033 4.174z"></path>
</symbol>

<symbol id="burger-close" viewBox="0 0 44 32">
<path d="M0 6h28v6h-28v-6zM0 14h28v6h-28v-6zM0 22h28v6h-28v-6z"></path>
<path d="M31 14l6 6 6-6z"></path>
</symbol>

<symbol id="burger-open" viewBox="0 0 44 32">
<path d="M0 6h28v6h-28v-6zM0 14h28v6h-28v-6zM0 22h28v6h-28v-6z"></path>
<path d="M31 20l6-6 6 6z"></path>
</symbol>

<symbol id="arrow-top" viewBox="0 0 16 32">
<path d="M9.112 13.438v18.562h-2.707v-18.562h-6.405l7.758-13.438 7.758 13.438h-6.405z"></path>
</symbol>
<symbol id="icon-star" viewBox="0 0 33 32">
<path d="M33.017 11.861h-12.722l-3.94-12.331-3.947 12.331h-12.722l10.276 7.616-3.89 12.274 10.283-7.609 10.276 7.609-3.947-12.331 10.332-7.559z"></path>
</symbol>

<symbol id="icon-person" viewBox="0 0 29 32">
<path d="M15.419 19.2c1.243 0 2.459-0.315 3.493-0.901s1.84-1.419 2.315-2.395c0.475-0.976 0.603-2.048 0.357-3.083-0.24-1.035-0.843-1.984-1.717-2.731-0.88-0.741-2-1.253-3.221-1.456-1.221-0.208-2.48-0.101-3.632 0.304-1.147 0.4-2.128 1.083-2.821 1.963-0.688 0.875-1.056 1.909-1.056 2.965 0 1.413 0.661 2.768 1.84 3.771 1.179 0.997 2.779 1.563 4.443 1.563zM24.848 32.533c0.416 0 0.816-0.144 1.109-0.395 0.299-0.251 0.464-0.587 0.464-0.939 0-2.48-1.163-4.853-3.221-6.603-2.064-1.749-4.864-2.731-7.781-2.731s-5.712 0.981-7.776 2.731c-2.064 1.749-3.221 4.123-3.221 6.603 0 0.352 0.165 0.688 0.459 0.939s0.693 0.395 1.109 0.395h18.859z"></path>
</symbol>
<symbol id="icon-bed" viewBox="0 0 84 32">
<path d="M11.43-0.615c-4.931 0-9.001 2.084-9.001 4.611v10.429c-1.83 0.853-2.995 2.068-2.995 3.422v13.842h14.999v-3.077h53.998v3.077h14.999v-13.842c0-1.354-1.165-2.568-2.995-3.422v-10.429c0-2.527-4.070-4.611-9.001-4.611h-60.004zM11.43 2.462h60.004c1.666 0 2.995 0.681 2.995 1.534v9.231h-5.998v-1.534c0-2.535-4.062-4.62-9.001-4.62h-11.996c-2.306 0-4.406 0.46-5.998 1.198-1.641-0.763-3.783-1.19-6.006-1.198h-11.996c-4.939 0-9.001 2.084-9.001 4.62v1.534h-5.998v-9.231c0-0.853 1.329-1.534 2.995-1.534zM23.434 10.15h11.996c1.666 0 3.003 0.681 3.003 1.543v1.534h-18.002v-1.534c0-0.862 1.337-1.543 3.003-1.543zM47.434 10.15h11.996c1.666 0 3.003 0.681 3.003 1.543v1.534h-18.002v-1.534c0-0.862 1.337-1.543 3.003-1.543zM8.435 16.304h65.994c1.666 0 3.003 0.681 3.003 1.543v10.765h-3.003v-3.077h-65.994v3.077h-3.003v-10.765c0-0.862 1.337-1.543 3.003-1.543z"></path>
</symbol>
<symbol id="icon-arrow-down" viewBox="0 0 37 32">
<path d="M17.778 32l-18.477-32h36.942l-18.465 32z"></path>
</symbol>
<symbol id="input-arrow-down" viewBox="0 0 27 32">
<path d="M12.308 32l-12.8-33.231h25.575l-12.775 33.231z"></path>
</symbol>
<symbol id="input-arrow-up" viewBox="0 0 25 32">
<path d="M11.429 0l11.863 30.857h-23.749l11.886-30.857z"></path>
</symbol>
<symbol id="icon-calendar" viewBox="0 0 31 32">
<path fill="#cfd8dc" style="fill: var(--color1, #cfd8dc)" d="M3.179 25.33v-16h24.213v16c0 1.465-1.152 2.667-2.553 2.667h-19.108c-1.401 0-2.553-1.202-2.553-2.667z"></path>
<path fill="#f44336" style="fill: var(--color2, #f44336)" d="M27.392 6.663v4.004h-24.213v-4.004c0-1.465 1.152-2.667 2.553-2.667h19.108c1.401 0 2.553 1.202 2.553 2.667z"></path>
<path fill="#b71c1c" style="fill: var(--color3, #b71c1c)" d="M22.933 6.663c0 1.102-0.86 1.998-1.913 1.998-1.060 0-1.913-0.896-1.913-1.998s0.853-1.998 1.913-1.998c1.052 0 1.913 0.896 1.913 1.998z"></path>
<path fill="#b71c1c" style="fill: var(--color3, #b71c1c)" d="M11.463 6.663c0 1.102-0.853 1.998-1.913 1.998-1.052 0-1.906-0.896-1.906-1.998s0.853-1.998 1.906-1.998c1.060 0 1.913 0.896 1.913 1.998z"></path>
<path fill="#b0bec5" style="fill: var(--color4, #b0bec5)" d="M21.020 1.998c-0.704 0-1.273 0.597-1.273 1.33v3.335c0 0.732 0.569 1.337 1.273 1.337 0.697 0 1.273-0.604 1.273-1.337v-3.335c0-0.732-0.576-1.33-1.273-1.33z"></path>
<path fill="#b0bec5" style="fill: var(--color4, #b0bec5)" d="M9.55 1.998c-0.697 0-1.273 0.597-1.273 1.33v3.335c0 0.732 0.576 1.337 1.273 1.337 0.704 0 1.273-0.604 1.273-1.337v-3.335c0-0.732-0.569-1.33-1.273-1.33z"></path>
<path fill="#90a4ae" style="fill: var(--color5, #90a4ae)" d="M8.277 13.333h2.546v2.667h-2.546v-2.667z"></path>
<path fill="#90a4ae" style="fill: var(--color5, #90a4ae)" d="M12.103 13.333h2.546v2.667h-2.546v-2.667z"></path>
<path fill="#90a4ae" style="fill: var(--color5, #90a4ae)" d="M15.922 13.333h2.546v2.667h-2.546v-2.667z"></path>
<path fill="#90a4ae" style="fill: var(--color5, #90a4ae)" d="M19.748 13.333h2.546v2.667h-2.546v-2.667z"></path>
<path fill="#90a4ae" style="fill: var(--color5, #90a4ae)" d="M8.277 17.33h2.546v2.667h-2.546v-2.667z"></path>
<path fill="#90a4ae" style="fill: var(--color5, #90a4ae)" d="M12.103 17.33h2.546v2.667h-2.546v-2.667z"></path>
<path fill="#90a4ae" style="fill: var(--color5, #90a4ae)" d="M15.922 17.33h2.546v2.667h-2.546v-2.667z"></path>
<path fill="#90a4ae" style="fill: var(--color5, #90a4ae)" d="M19.748 17.33h2.546v2.667h-2.546v-2.667z"></path>
<path fill="#90a4ae" style="fill: var(--color5, #90a4ae)" d="M8.277 21.333h2.546v2.667h-2.546v-2.667z"></path>
<path fill="#90a4ae" style="fill: var(--color5, #90a4ae)" d="M12.103 21.333h2.546v2.667h-2.546v-2.667z"></path>
<path fill="#90a4ae" style="fill: var(--color5, #90a4ae)" d="M15.922 21.333h2.546v2.667h-2.546v-2.667z"></path>
<path fill="#90a4ae" style="fill: var(--color5, #90a4ae)" d="M19.748 21.333h2.546v2.667h-2.546v-2.667z"></path>
</symbol>
</defs>
</svg>
