<svg aria-hidden="true" style="position: absolute; width: 0; height: 0; overflow: hidden;" version="1.1" xmlns="http://www.w3.org/2000/svg" xmlns:xlink="http://www.w3.org/1999/xlink">
<defs>
<symbol id="lang" viewBox="0 0 32 32">
<path d="M16 28.8c3.395 0 6.651-1.349 9.051-3.749s3.749-5.656 3.749-9.051c0-3.395-1.349-6.651-3.749-9.051s-5.656-3.749-9.051-3.749c-3.395 0-6.651 1.349-9.051 3.749s-3.749 5.656-3.749 9.051c0 3.395 1.349 6.651 3.749 9.051s5.656 3.749 9.051 3.749zM16 4.8c1.051 0 2.251 0.944 3.235 3.053 0.347 0.746 0.65 1.603 0.894 2.547h-8.259c0.245-0.944 0.547-1.802 0.896-2.547 0.981-2.109 2.181-3.053 3.234-3.053zM11.315 7.176c-0.472 1.035-0.839 2.115-1.093 3.224h-3.925c1.351-2.335 3.496-4.105 6.045-4.989-0.386 0.528-0.73 1.126-1.027 1.765zM9.907 12c-0.207 1.323-0.31 2.661-0.307 4 0 1.392 0.107 2.739 0.309 4h-4.373c-0.488-1.277-0.737-2.633-0.736-4 0-1.408 0.261-2.758 0.736-4h4.371zM10.222 21.6c0.282 1.189 0.651 2.275 1.093 3.224 0.298 0.638 0.642 1.237 1.027 1.765-2.548-0.883-4.694-2.654-6.045-4.989h3.925zM11.87 21.6h8.259c-0.22 0.875-0.52 1.727-0.896 2.547-0.981 2.109-2.181 3.053-3.234 3.053-1.051 0-2.251-0.944-3.235-3.053-0.375-0.82-0.673-1.673-0.893-2.547h-0.002zM20.47 20h-8.941c-0.222-1.322-0.333-2.66-0.33-4 0-1.413 0.117-2.76 0.33-4h8.941c0.213 1.24 0.33 2.587 0.33 4s-0.117 2.76-0.33 4zM21.778 21.6h3.925c-1.351 2.335-3.496 4.105-6.045 4.989 0.386-0.528 0.73-1.126 1.027-1.765 0.442-0.949 0.811-2.035 1.093-3.224zM26.466 20h-4.374c0.202-1.261 0.309-2.608 0.309-4s-0.107-2.739-0.309-4h4.373c0.475 1.242 0.736 2.592 0.736 4s-0.261 2.758-0.736 4h0.002zM19.658 5.411c2.549 0.883 4.694 2.654 6.045 4.989h-3.926c-0.254-1.109-0.62-2.189-1.093-3.224-0.285-0.62-0.629-1.211-1.027-1.765h0.002z"></path>
</symbol>

<symbol id="button-swiper-nav" viewBox="0 0 19 32">
<path d="M0.36 31.39c-0.48-0.481-0.48-1.26 0-1.74l13.649-13.649-13.649-13.649c-0.48-0.48-0.48-1.26 0-1.74s1.26-0.48 1.74 0l14.52 14.52c0.48 0.481 0.48 1.26 0 1.74l-14.52 14.52c-0.481 0.48-1.26 0.48-1.74 0z"></path>
</symbol>
<symbol id="icon-arrow" viewBox="0 0 51 32">
<path d="M49.925 16.818c0.809-0.824 0.798-2.145-0.023-2.951l-13.386-13.138c-0.821-0.806-2.143-0.792-2.951 0.032s-0.798 2.145 0.023 2.951l11.899 11.678-11.711 11.932c-0.809 0.824-0.798 2.145 0.023 2.951s2.143 0.792 2.951-0.032l13.175-13.424zM1.183 17.954l47.272-0.509-0.033-4.174-47.272 0.509 0.033 4.174z"></path>
</symbol>

<symbol id="burger-close" viewBox="0 0 44 32">
<path d="M0 6h28v6h-28v-6zM0 14h28v6h-28v-6zM0 22h28v6h-28v-6z"></path>
<path d="M31 14l6 6 6-6z"></path>
</symbol>

<symbol id="burger-open" viewBox="0 0 44 32">
<path d="M0 6h28v6h-28v-6zM0 14h28v6h-28v-6zM0 22h28v6h-28v-6z"></path>
<path d="M31 20l6-6 6 6z"></path>
</symbol>
</defs>
</svg>
